@startuml

class User
class Role
class Permission
class View
class Table
class Schema
class Database
class Trigger
class Attribute
class Constraint
class Key
class Foreign
class Primary

User "1" --> "*" Role : has a
Role "1" --> "*" Permission : has
Permission "1" --> "*" View : over a

Table "1" *-- "0..*" View : has a           
Table "0..*" o-- "0..*" Trigger : could have 
Table "1" *-- "1..*" Attribute : has       
Table "1" *-- "0..*" Key : has            
Attribute "0..*" --> "*" Constraint : could have 
Table .up.> Database : depends on a
Table .up.> Schema : needs a

Key <|-- Foreign : inherits
Key <|-- Primary : inherits

@enduml
